<svg width="80" height="80" viewBox="0 0 80 80" fill="none" xmlns="http://www.w3.org/2000/svg">
<path d="M35.076 8.26481C36.6868 3.91172 42.8437 3.91172 44.4545 8.26481L50.8981 25.6783C51.4045 27.0469 52.4836 28.126 53.8522 28.6324L71.2657 35.076C75.6188 36.6868 75.6188 42.8437 71.2657 44.4545L53.8522 50.8981C52.4836 51.4045 51.4045 52.4836 50.8981 53.8522L44.4545 71.2657C42.8437 75.6188 36.6868 75.6188 35.076 71.2657L28.6324 53.8522C28.126 52.4836 27.0469 51.4045 25.6783 50.8981L8.26481 44.4545C3.91172 42.8437 3.91172 36.6868 8.26481 35.076L25.6783 28.6324C27.0469 28.126 28.126 27.0469 28.6324 25.6783L35.076 8.26481Z" stroke="#FFAA4C" stroke-width="10"/>
</svg>
